<svg width="109" height="45" viewBox="0 0 109 45" fill="none" xmlns="http://www.w3.org/2000/svg">
<path d="M0 45L16.631 0.944057H24.162L7.53102 45H0Z" fill="#2D68FF"/>
<path d="M39.6948 17.465C38.2513 17.465 37.0118 17.1976 35.9763 16.6626C34.9408 16.1276 34.1171 15.4353 33.5052 14.5857C32.909 13.736 32.5011 12.8077 32.2814 11.8007H35.9292C36.1332 12.493 36.549 13.083 37.1766 13.5708C37.8198 14.0428 38.6592 14.2788 39.6948 14.2788C40.4165 14.2788 41.0048 14.2002 41.4598 14.0428C41.9148 13.8698 42.2443 13.6495 42.4483 13.382C42.6522 13.0988 42.7542 12.7684 42.7542 12.3907C42.7542 11.9974 42.5973 11.667 42.2835 11.3995C41.9697 11.132 41.5618 10.9117 41.0598 10.7386C40.5734 10.5656 39.9144 10.3767 39.0829 10.1722C37.7963 9.82605 36.7451 9.49563 35.9292 9.18094C35.1291 8.85052 34.4387 8.35489 33.8582 7.69406C33.2777 7.03322 32.9874 6.15996 32.9874 5.0743C32.9874 4.16171 33.2385 3.31993 33.7405 2.54895C34.2583 1.76224 34.9957 1.14073 35.9528 0.68444C36.9255 0.228147 38.0552 0 39.3417 0C40.7067 0 41.8678 0.243881 42.8248 0.731644C43.7976 1.20367 44.5507 1.82517 45.0841 2.59615C45.6333 3.3514 45.9941 4.17745 46.1667 5.0743H42.5189C42.3777 4.55507 42.0404 4.11451 41.5069 3.75262C40.9892 3.375 40.2674 3.18619 39.3417 3.18619C38.7455 3.18619 38.2435 3.26486 37.8355 3.4222C37.4276 3.57955 37.1217 3.79196 36.9177 4.05944C36.7294 4.32692 36.6353 4.62587 36.6353 4.95629C36.6353 5.34965 36.7922 5.68007 37.106 5.94755C37.4198 6.21503 37.8198 6.43531 38.3062 6.60839C38.8083 6.78147 39.4751 6.97028 40.3066 7.17482C41.5932 7.52098 42.6366 7.85926 43.4367 8.18968C44.2526 8.50437 44.9508 8.99213 45.5313 9.65297C46.1118 10.3138 46.4021 11.1871 46.4021 12.2727C46.4021 13.2168 46.1432 14.0822 45.6254 14.8689C45.1077 15.6556 44.3389 16.285 43.3191 16.757C42.3149 17.229 41.1068 17.465 39.6948 17.465Z" fill="white"/>
<path d="M48.5238 16.993V0.472027H51.8187V14.1608H54.5251V16.993H48.5238Z" fill="white"/>
<path d="M61.0045 17.347C59.9846 17.347 59.0511 17.0874 58.2039 16.5682C57.3723 16.0332 56.7055 15.2858 56.2034 14.326C55.717 13.3505 55.4739 12.2334 55.4739 10.9746C55.4739 9.71591 55.717 8.60664 56.2034 7.64685C56.7055 6.67133 57.3723 5.92395 58.2039 5.40472C59.0511 4.86975 59.9846 4.60227 61.0045 4.60227C61.585 4.60227 62.1184 4.69668 62.6048 4.88549C63.0912 5.05857 63.5148 5.28671 63.8757 5.56993C64.2365 5.85315 64.5346 6.15996 64.77 6.49038H64.8876V4.95629H68.1825V16.993H64.8876V15.4589H64.77C64.5346 15.7893 64.2365 16.0962 63.8757 16.3794C63.5148 16.6626 63.0912 16.8907 62.6048 17.0638C62.1184 17.2526 61.585 17.347 61.0045 17.347ZM61.8282 14.5149C62.4244 14.5149 62.95 14.3733 63.405 14.09C63.8757 13.8068 64.2365 13.3977 64.4876 12.8628C64.7543 12.3278 64.8876 11.6984 64.8876 10.9746C64.8876 10.2509 64.7543 9.6215 64.4876 9.08654C64.2365 8.55157 63.8757 8.14248 63.405 7.85927C62.95 7.57605 62.4244 7.43444 61.8282 7.43444C61.279 7.43444 60.777 7.57605 60.322 7.85927C59.8826 8.14248 59.5296 8.55157 59.2629 9.08654C59.0119 9.6215 58.8864 10.2509 58.8864 10.9746C58.8864 11.6984 59.0119 12.3278 59.2629 12.8628C59.5296 13.3977 59.8826 13.8068 60.322 14.09C60.777 14.3733 61.279 14.5149 61.8282 14.5149Z" fill="white"/>
<path d="M75.9488 17.347C74.7878 17.347 73.7915 17.1503 72.96 16.757C72.1284 16.3479 71.4616 15.8287 70.9595 15.1993C70.4731 14.5542 70.1358 13.854 69.9475 13.0988H73.36C73.5326 13.5236 73.8307 13.8855 74.2543 14.1844C74.6937 14.4834 75.2585 14.6329 75.9488 14.6329C76.6705 14.6329 77.1805 14.5306 77.4786 14.326C77.7924 14.1215 77.9492 13.8304 77.9492 13.4528C77.9492 13.2168 77.8394 13.028 77.6198 12.8864C77.4158 12.729 77.1491 12.611 76.8196 12.5323C76.5058 12.4379 76.0586 12.3278 75.4781 12.2019C74.4426 11.9816 73.6032 11.7535 72.96 11.5175C72.3167 11.2815 71.7518 10.9038 71.2655 10.3846C70.7791 9.86538 70.5359 9.15734 70.5359 8.26049C70.5359 7.61538 70.732 7.01748 71.1243 6.46678C71.5165 5.90035 72.097 5.45192 72.8658 5.1215C73.6346 4.77535 74.5446 4.60227 75.5958 4.60227C77.2589 4.60227 78.5533 4.97989 79.479 5.73514C80.4204 6.49038 81.0087 7.41084 81.2441 8.4965H77.9492C77.8237 8.16608 77.5649 7.89073 77.1726 7.67045C76.7804 7.43444 76.2548 7.31643 75.5958 7.31643C75.2193 7.31643 74.9055 7.36364 74.6544 7.45804C74.4191 7.53671 74.2387 7.64685 74.1131 7.78846C74.0033 7.93007 73.9484 8.08741 73.9484 8.26049C73.9484 8.4965 74.0504 8.69318 74.2543 8.85052C74.474 8.99213 74.7407 9.11014 75.0545 9.20455C75.384 9.28322 75.839 9.38549 76.4195 9.51136C77.455 9.73164 78.2944 9.95979 78.9377 10.1958C79.581 10.4318 80.1458 10.8094 80.6322 11.3287C81.1186 11.8479 81.3617 12.5559 81.3617 13.4528C81.3617 14.1451 81.1499 14.7902 80.7263 15.3881C80.3027 15.9703 79.683 16.4423 78.8671 16.8042C78.0512 17.1661 77.0785 17.347 75.9488 17.347Z" fill="white"/>
<path d="M83.2509 16.993V0.472027H86.5458V6.60839H86.6634C86.9929 6.04196 87.4793 5.56993 88.1226 5.19231C88.7815 4.79895 89.5503 4.60227 90.4289 4.60227C91.9195 4.60227 93.0726 5.04283 93.8885 5.92395C94.72 6.78933 95.1358 8.04021 95.1358 9.67657V16.993H91.841V10.1486C91.841 9.26748 91.6213 8.59878 91.182 8.14248C90.7427 7.67045 90.1387 7.43444 89.3699 7.43444C88.8678 7.43444 88.3971 7.56818 87.9578 7.83566C87.5342 8.10315 87.189 8.48077 86.9223 8.96853C86.6713 9.45629 86.5458 10.007 86.5458 10.6206V16.993H83.2509Z" fill="white"/>
<path d="M33.2228 41.2238V24.7028H40.9891C42.2914 24.7028 43.4289 24.9467 44.4016 25.4344C45.3901 25.9222 46.1432 26.5909 46.6609 27.4406C47.1944 28.2902 47.4611 29.2264 47.4611 30.2491C47.4611 31.4764 47.1159 32.5227 46.4256 33.3881C45.7353 34.2378 44.8253 34.8829 43.6956 35.3234L47.4611 41.2238H43.4603L40.0478 35.7955H36.7529V41.2238H33.2228ZM40.8715 32.4913C41.8442 32.4913 42.5738 32.2867 43.0602 31.8776C43.5622 31.4685 43.8133 30.9257 43.8133 30.2491C43.8133 29.5725 43.5622 29.0297 43.0602 28.6206C42.5738 28.2115 41.8442 28.007 40.8715 28.007H36.7529V32.4913H40.8715Z" fill="white"/>
<path d="M49.5811 41.2238V29.1871H52.8759V41.2238H49.5811ZM51.2285 27.653C50.7107 27.653 50.2636 27.4799 49.887 27.1337C49.5261 26.7719 49.3457 26.3549 49.3457 25.8829C49.3457 25.4108 49.5261 25.0017 49.887 24.6556C50.2636 24.2937 50.7107 24.1128 51.2285 24.1128C51.7462 24.1128 52.1855 24.2937 52.5464 24.6556C52.9229 25.0017 53.1112 25.4108 53.1112 25.8829C53.1112 26.3549 52.9229 26.7719 52.5464 27.1337C52.1855 27.4799 51.7462 27.653 51.2285 27.653Z" fill="white"/>
<path d="M56.053 41.2238V32.0192H54.5233V29.1871H56.053V26.5909H59.3479V29.1871H62.7603V32.0192H59.3479V38.3916H62.878V41.2238H56.053Z" fill="white"/>
<path d="M70.5157 41.5778C69.3233 41.5778 68.2328 41.2946 67.2444 40.7281C66.2559 40.1617 65.4715 39.3907 64.8909 38.4152C64.3261 37.4397 64.0437 36.3698 64.0437 35.2054C64.0437 34.0411 64.3261 32.9712 64.8909 31.9956C65.4715 31.0201 66.2559 30.2491 67.2444 29.6827C68.2328 29.1163 69.3233 28.833 70.5157 28.833C71.7395 28.833 72.8299 29.1163 73.787 29.6827C74.7597 30.2491 75.5128 31.0201 76.0463 31.9956C76.5954 32.9712 76.87 34.0411 76.87 35.2054V35.9135H67.4562C67.5346 36.417 67.7151 36.889 67.9975 37.3295C68.2956 37.7544 68.6643 38.1005 69.1036 38.368C69.5429 38.6198 70.0136 38.7456 70.5157 38.7456C71.206 38.7456 71.7787 38.6119 72.2337 38.3444C72.7044 38.0612 73.0339 37.7229 73.2221 37.3295H76.7523C76.3914 38.5096 75.6854 39.5166 74.6342 40.3505C73.583 41.1687 72.2102 41.5778 70.5157 41.5778ZM73.3398 33.9073C73.2614 33.4982 73.0888 33.1285 72.8221 32.7981C72.571 32.4519 72.2415 32.1766 71.8336 31.972C71.4414 31.7675 71.0021 31.6652 70.5157 31.6652C70.0293 31.6652 69.5821 31.7675 69.1742 31.972C68.7663 32.1766 68.429 32.4519 68.1622 32.7981C67.8955 33.1285 67.6994 33.4982 67.5739 33.9073H73.3398Z" fill="white"/>
<path d="M84.0388 41.5778C82.8778 41.5778 81.8815 41.3811 81.0499 40.9878C80.2184 40.5787 79.5516 40.0594 79.0495 39.4301C78.5631 38.785 78.2258 38.0848 78.0375 37.3295H81.45C81.6226 37.7544 81.9207 38.1163 82.3443 38.4152C82.7836 38.7142 83.3484 38.8636 84.0388 38.8636C84.7605 38.8636 85.2704 38.7614 85.5685 38.5568C85.8823 38.3523 86.0392 38.0612 86.0392 37.6836C86.0392 37.4475 85.9294 37.2587 85.7097 37.1171C85.5058 36.9598 85.239 36.8418 84.9096 36.7631C84.5958 36.6687 84.1486 36.5586 83.5681 36.4327C82.5326 36.2124 81.6932 35.9843 81.0499 35.7482C80.4066 35.5122 79.8418 35.1346 79.3554 34.6154C78.8691 34.0961 78.6259 33.3881 78.6259 32.4913C78.6259 31.8462 78.822 31.2482 79.2142 30.6975C79.6065 30.1311 80.187 29.6827 80.9558 29.3523C81.7246 29.0061 82.6346 28.833 83.6858 28.833C85.3489 28.833 86.6433 29.2107 87.569 29.9659C88.5103 30.7212 89.0987 31.6416 89.334 32.7273H86.0392C85.9137 32.3969 85.6548 32.1215 85.2626 31.9012C84.8703 31.6652 84.3447 31.5472 83.6858 31.5472C83.3092 31.5472 82.9954 31.5944 82.7444 31.6888C82.509 31.7675 82.3286 31.8776 82.2031 32.0192C82.0933 32.1608 82.0384 32.3182 82.0384 32.4913C82.0384 32.7273 82.1403 32.9239 82.3443 33.0813C82.564 33.2229 82.8307 33.3409 83.1445 33.4353C83.474 33.514 83.929 33.6163 84.5095 33.7421C85.545 33.9624 86.3844 34.1906 87.0277 34.4266C87.6709 34.6626 88.2358 35.0402 88.7221 35.5594C89.2085 36.0787 89.4517 36.7867 89.4517 37.6836C89.4517 38.3759 89.2399 39.021 88.8163 39.6189C88.3927 40.201 87.7729 40.6731 86.9571 41.035C86.1412 41.3969 85.1684 41.5778 84.0388 41.5778Z" fill="white"/>
<path d="M91.3409 41.2238V24.7028H94.6357V30.8392H94.7534C95.0829 30.2727 95.5693 29.8007 96.2125 29.4231C96.8715 29.0297 97.6403 28.833 98.5189 28.833C100.009 28.833 101.163 29.2736 101.978 30.1547C102.81 31.0201 103.226 32.271 103.226 33.9073V41.2238H99.931V34.3794C99.931 33.4982 99.7113 32.8295 99.272 32.3732C98.8327 31.9012 98.2286 31.6652 97.4599 31.6652C96.9578 31.6652 96.4871 31.7989 96.0478 32.0664C95.6242 32.3339 95.279 32.7115 95.0123 33.1993C94.7612 33.6871 94.6357 34.2378 94.6357 34.8514V41.2238H91.3409Z" fill="white"/>
<path d="M107.117 41.5778C106.584 41.5778 106.137 41.3969 105.776 41.035C105.415 40.6731 105.234 40.2246 105.234 39.6897C105.234 39.1547 105.415 38.7063 105.776 38.3444C106.137 37.9825 106.584 37.8016 107.117 37.8016C107.651 37.8016 108.098 37.9825 108.459 38.3444C108.82 38.7063 109 39.1547 109 39.6897C109 40.2246 108.82 40.6731 108.459 41.035C108.098 41.3969 107.651 41.5778 107.117 41.5778Z" fill="white"/>
</svg>
